<svg width="24" height="24" viewBox="0 0 24 24" fill="none" xmlns="http://www.w3.org/2000/svg">
<path d="M10.0787 15.5373C6.08867 18.3023 0.59467 16.8033 1.02367 11.3023C1.17467 9.45131 1.67667 7.64931 3.21867 6.76931C5.48967 5.44731 8.94567 5.82931 10.4947 8.14131C12.0747 10.6783 11.8257 13.5983 14.2377 15.6483C16.5947 17.4313 20.2847 17.3513 22.1587 16.2293C23.0147 15.4793 23.1817 14.1723 22.5567 13.1473C21.8277 11.8783 19.4227 11.5943 18.2007 11.2233C16.9647 10.9613 15.5757 9.89231 15.7587 8.41531C15.8537 7.08131 17.1147 6.30131 18.3437 6.10531C20.5537 5.65331 22.2177 6.68831 22.9677 8.59631" stroke-linecap="round" stroke-linejoin="round" vector-effect="non-scaling-stroke"/>
</svg>
