<svg width="14" height="14" viewBox="0 0 14 14" fill="none" xmlns="http://www.w3.org/2000/svg">
<g clip-path="url(#clip0_1808_1804)">
<path d="M10.5 0.5H3.5C1.84315 0.5 0.5 1.84315 0.5 3.5V10.5C0.5 12.1569 1.84315 13.5 3.5 13.5H10.5C12.1569 13.5 13.5 12.1569 13.5 10.5V3.5C13.5 1.84315 12.1569 0.5 10.5 0.5Z" stroke-linecap="round" stroke-linejoin="round" vector-effect="non-scaling-stroke"/>
<path d="M3.7 8C4.2 9.8 6.2 10.9 8 10.4C9.1 10 10 9.1 10.3 8" stroke-linecap="round" stroke-linejoin="round" vector-effect="non-scaling-stroke"/>
<path d="M4.80001 5.4C4.68955 5.4 4.60001 5.31046 4.60001 5.2C4.60001 5.08954 4.68955 5 4.80001 5" stroke-linecap="round" stroke-linejoin="round" vector-effect="non-scaling-stroke"/>
<path d="M4.80002 5.4C4.91048 5.4 5.00002 5.31046 5.00002 5.2C5.00002 5.08954 4.91048 5 4.80002 5" stroke-linecap="round" stroke-linejoin="round" vector-effect="non-scaling-stroke"/>
<path d="M9.2 5.4C9.08954 5.4 9 5.31046 9 5.2C9 5.08954 9.08954 5 9.2 5" stroke-linecap="round" stroke-linejoin="round" vector-effect="non-scaling-stroke"/>
<path d="M9.20001 5.4C9.31047 5.4 9.40001 5.31046 9.40001 5.2C9.40001 5.08954 9.31047 5 9.20001 5" stroke-linecap="round" stroke-linejoin="round" vector-effect="non-scaling-stroke"/>
</g>
<defs>
<clipPath id="clip0_1808_1804">
<rect width="14" height="14" fill="white"/>
</clipPath>
</defs>
</svg>
