<svg width="14" height="14" viewBox="0 0 14 14" fill="none" xmlns="http://www.w3.org/2000/svg">
<g clip-path="url(#clip0_1808_1885)">
<path d="M10.5 0.5H3.5C1.84315 0.5 0.5 1.84315 0.5 3.5V10.5C0.5 12.1569 1.84315 13.5 3.5 13.5H10.5C12.1569 13.5 13.5 12.1569 13.5 10.5V3.5C13.5 1.84315 12.1569 0.5 10.5 0.5Z" stroke-linecap="round" stroke-linejoin="round" vector-effect="non-scaling-stroke"/>
<path d="M5.23 9.23006V4.91006C5.23037 4.83778 5.24985 4.76689 5.28646 4.70456C5.32306 4.64223 5.37549 4.59069 5.43844 4.55516C5.50138 4.51963 5.5726 4.50137 5.64488 4.50223C5.71715 4.50309 5.78792 4.52304 5.85 4.56006L9.55 6.71006C9.61229 6.74606 9.66402 6.79781 9.69998 6.86013C9.73594 6.92244 9.75487 6.99312 9.75487 7.06506C9.75487 7.13701 9.73594 7.20769 9.69998 7.27C9.66402 7.33232 9.61229 7.38407 9.55 7.42006L5.85 9.58006C5.78792 9.61709 5.71715 9.63704 5.64488 9.6379C5.5726 9.63876 5.50138 9.6205 5.43844 9.58497C5.37549 9.54944 5.32306 9.49789 5.28646 9.43557C5.24985 9.37324 5.23037 9.30234 5.23 9.23006V9.23006Z" stroke-linecap="round" stroke-linejoin="round" vector-effect="non-scaling-stroke"/>
</g>
<defs>
<clipPath id="clip0_1808_1885">
<rect width="14" height="14" fill="white"/>
</clipPath>
</defs>
</svg>
