<svg width="14" height="14" viewBox="0 0 14 14" fill="none" xmlns="http://www.w3.org/2000/svg">
<path d="M2.92871 4.94372L6.77728 1.09514C6.80609 1.06507 6.84068 1.04113 6.87898 1.02478C6.91728 1.00843 6.95849 1 7.00014 1C7.04178 1 7.083 1.00843 7.1213 1.02478C7.1596 1.04113 7.19419 1.06507 7.223 1.09514L11.0716 4.94372" stroke-linecap="round" stroke-linejoin="round" vector-effect="non-scaling-stroke"/>
<path d="M2.92871 9L6.77728 12.8486C6.80609 12.8786 6.84068 12.9026 6.87898 12.9189C6.91728 12.9353 6.95849 12.9437 7.00014 12.9437C7.04178 12.9437 7.083 12.9353 7.1213 12.9189C7.1596 12.9026 7.19419 12.8786 7.223 12.8486L11.0716 9" stroke-linecap="round" stroke-linejoin="round" vector-effect="non-scaling-stroke"/>
</svg>
