<svg width="14" height="14" viewBox="0 0 14 14" fill="none" xmlns="http://www.w3.org/2000/svg">
<g clip-path="url(#clip0_1808_1871)">
<path d="M10.5 0.5H3.5C1.84315 0.5 0.5 1.84315 0.5 3.5V10.5C0.5 12.1569 1.84315 13.5 3.5 13.5H10.5C12.1569 13.5 13.5 12.1569 13.5 10.5V3.5C13.5 1.84315 12.1569 0.5 10.5 0.5Z" stroke-linecap="round" stroke-linejoin="round" vector-effect="non-scaling-stroke"/>
<path d="M7 8C8.38071 8 9.5 6.88071 9.5 5.5C9.5 4.11929 8.38071 3 7 3C5.61929 3 4.5 4.11929 4.5 5.5C4.5 6.88071 5.61929 8 7 8Z" stroke-linecap="round" stroke-linejoin="round" vector-effect="non-scaling-stroke"/>
<path d="M2.10001 12.9949C2.32952 12.0071 2.94274 11.1191 3.83575 10.4812C4.72876 9.84333 5.84665 9.49487 7.00001 9.49487C8.15336 9.49487 9.27125 9.84333 10.1643 10.4812C11.0573 11.1191 11.6705 12.0071 11.9 12.9949" stroke-linecap="round" stroke-linejoin="round" vector-effect="non-scaling-stroke"/>
</g>
<defs>
<clipPath id="clip0_1808_1871">
<rect width="14" height="14" fill="white"/>
</clipPath>
</defs>
</svg>
