<svg width="24" height="24" viewBox="0 0 24 24" fill="none" xmlns="http://www.w3.org/2000/svg">
<path d="M6.05203 4.24461C8.45963 6.05208 11.0493 9.71689 12.0001 11.6836C12.9509 9.71703 15.5404 6.05205 17.9481 4.24461C19.6853 2.94041 22.5 1.93129 22.5 5.14235C22.5 5.78365 22.1323 10.5295 21.9167 11.3C21.1671 13.9787 18.4356 14.662 16.0059 14.2484C20.253 14.9713 21.3334 17.3656 19.0001 19.7598C14.5688 24.307 12.631 18.6189 12.1342 17.1614C12.0432 16.8942 12.0006 16.7692 12 16.8755C11.9994 16.7692 11.9568 16.8942 11.8658 17.1614C11.3692 18.6189 9.43147 24.3072 4.99988 19.7598C2.66658 17.3656 3.74695 14.9711 7.99407 14.2484C5.56431 14.662 2.8328 13.9787 2.08333 11.3C1.86767 10.5295 1.5 5.78357 1.5 5.14235C1.5 1.93129 4.3149 2.94041 6.05203 4.24461Z" stroke-linejoin="round" vector-effect="non-scaling-stroke"/>
</svg>
