<svg width="14" height="14" viewBox="0 0 14 14" fill="none" xmlns="http://www.w3.org/2000/svg">
<path d="M2.17 3.16994C2.70206 2.81454 3.31024 2.58926 3.94543 2.51229C4.58062 2.43533 5.22501 2.50883 5.82655 2.72686C6.42809 2.9449 6.96992 3.30135 7.40828 3.76744C7.84663 4.23352 8.16922 4.79617 8.35 5.40994C8.69253 5.05764 9.11636 4.79488 9.58422 4.64474C10.0521 4.4946 10.5497 4.46168 11.0332 4.54887C11.5168 4.63606 11.9716 4.8407 12.3575 5.14479C12.7435 5.44888 13.0488 5.84312 13.2468 6.29286C13.4447 6.74261 13.5291 7.23408 13.4926 7.72409C13.4561 8.21409 13.2998 8.68764 13.0375 9.1031C12.7751 9.51855 12.4147 9.86321 11.9879 10.1068C11.5612 10.3503 11.0811 10.4853 10.59 10.4999L9.59 10.5499" stroke-linecap="round" stroke-linejoin="round" vector-effect="non-scaling-stroke"/>
<path d="M0.749993 5.1001C0.583704 5.54809 0.499033 6.02224 0.499993 6.5001C0.499993 7.56096 0.92142 8.57838 1.67157 9.32853C2.42171 10.0787 3.43913 10.5001 4.49999 10.5001H5.99999" stroke-linecap="round" stroke-linejoin="round" vector-effect="non-scaling-stroke"/>
<path d="M0.5 1.5L11.5 12.5" stroke-linecap="round" stroke-linejoin="round" vector-effect="non-scaling-stroke"/>
</svg>
