<svg width="14" height="14" viewBox="0 0 14 14" fill="none" xmlns="http://www.w3.org/2000/svg">
<g clip-path="url(#clip0_135_169)">
<path d="M0.500005 10.29C0.499521 10.4172 0.533711 10.5421 0.598901 10.6514C0.664091 10.7606 0.757817 10.85 0.870005 10.91C0.980283 10.9761 1.10644 11.011 1.23501 11.011C1.36357 11.011 1.48973 10.9761 1.60001 10.91L6.68001 7.60998C6.77911 7.5467 6.86068 7.45948 6.91718 7.35636C6.97369 7.25325 7.00331 7.13756 7.00331 7.01998C7.00331 6.90239 6.97369 6.78671 6.91718 6.68359C6.86068 6.58047 6.77911 6.49325 6.68001 6.42998L1.60001 3.10998C1.48973 3.04388 1.36357 3.00897 1.23501 3.00897C1.10644 3.00897 0.980283 3.04388 0.870005 3.10998C0.757817 3.16995 0.664091 3.25935 0.598901 3.36859C0.533711 3.47783 0.499521 3.60277 0.500005 3.72998V10.29Z" stroke-linecap="round" stroke-linejoin="round" vector-effect="non-scaling-stroke"/>
<path d="M7.00001 10.29C6.99952 10.4172 7.03371 10.5421 7.0989 10.6514C7.16409 10.7606 7.25782 10.85 7.37 10.91C7.48028 10.9761 7.60644 11.011 7.73501 11.011C7.86357 11.011 7.98973 10.9761 8.10001 10.91L13.18 7.60998C13.2791 7.5467 13.3607 7.45948 13.4172 7.35636C13.4737 7.25325 13.5033 7.13756 13.5033 7.01998C13.5033 6.90239 13.4737 6.78671 13.4172 6.68359C13.3607 6.58047 13.2791 6.49325 13.18 6.42998L8.10001 3.10998C7.98973 3.04388 7.86357 3.00897 7.73501 3.00897C7.60644 3.00897 7.48028 3.04388 7.37 3.10998C7.26077 3.16832 7.16897 3.2546 7.10397 3.36C7.03897 3.46541 7.00309 3.58618 7.00001 3.70998V10.29Z" stroke-linecap="round" stroke-linejoin="round" vector-effect="non-scaling-stroke"/>
</g>
<defs>
<clipPath id="clip0_135_169">
<rect width="14" height="14"/>
</clipPath>
</defs>
</svg>
