<svg width="24" height="24" viewBox="0 0 24 24" fill="none" xmlns="http://www.w3.org/2000/svg">
<g clip-path="url(#clip0_408_1070)">
<path d="M16.5909 23C16.5959 22.306 16.6007 19.8971 16.6007 18.9434C16.6007 17.5651 16.074 16.6633 15.4834 16.2068C19.1503 15.8405 23 14.592 23 8.913C23 7.29942 22.3641 5.97942 21.308 4.94661C21.4771 4.5726 22.0418 3.06917 21.1438 1.03417C21.1438 1.03417 19.7643 0.636979 16.6203 2.55098C15.3046 2.22202 13.8979 2.05925 12.4989 2.05271C11.0997 2.05925 9.69317 2.22217 8.37729 2.55098C5.23334 0.636979 3.85393 1.03417 3.85393 1.03417C2.95595 3.06917 3.52068 4.5726 3.6898 4.94661C2.63367 5.97942 1.99776 7.29942 1.99776 8.913C1.99776 14.592 5.8473 15.8405 9.51424 16.2068C8.92373 16.6633 8.39691 17.5651 8.39691 18.9434C8.39691 19.8971 8.4019 22.306 8.40672 23M1 17.054C2.65279 17.1585 3.60582 18.5011 3.60582 18.5011C5.07486 20.7605 7.46018 20.107 8.39758 19.7297"  stroke-linecap="round" stroke-linejoin="round"  vector-effect="non-scaling-stroke"/>
</g>
<defs>
<clipPath id="clip0_408_1070">
<rect width="24" height="24" fill="white"/>
</clipPath>
</defs>
</svg>
