<svg width="14" height="15" viewBox="0 0 14 15" fill="none" xmlns="http://www.w3.org/2000/svg">
<g clip-path="url(#clip0_1988_1608)">
<path d="M5.82 11.1874L8 13.3574C8.13376 13.4945 8.30099 13.5943 8.48515 13.6469C8.66931 13.6995 8.86402 13.7031 9.05 13.6574C9.23716 13.6139 9.40996 13.523 9.55182 13.3934C9.69367 13.2638 9.7998 13.0999 9.86 12.9174L13.44 2.1874C13.5147 1.98635 13.5301 1.76808 13.4844 1.55852C13.4387 1.34897 13.3338 1.15695 13.1821 1.00529C13.0305 0.853625 12.8384 0.7487 12.6289 0.702984C12.4193 0.657268 12.2011 0.672683 12 0.747398L1.27 4.3274C1.08126 4.39187 0.913147 4.50557 0.783053 4.65676C0.652959 4.80796 0.5656 4.99114 0.530005 5.1874C0.493264 5.36589 0.501443 5.55071 0.553807 5.72526C0.606171 5.8998 0.70108 6.05861 0.830005 6.1874L3.57 8.9274L3.48 12.3974L5.82 11.1874Z" stroke-linecap="round" stroke-linejoin="round" vector-effect="non-scaling-stroke"/>
<path d="M13.12 0.967285L3.57001 8.92729" stroke-linecap="round" stroke-linejoin="round" vector-effect="non-scaling-stroke"/>
</g>
<defs>
<clipPath id="clip0_1988_1608">
<rect width="14" height="14" fill="white" style="fill:white;fill-opacity:1;" transform="translate(0 0.1875)"/>
</clipPath>
</defs>
</svg>
