<svg width="15" height="14" viewBox="0 0 15 14" fill="none" xmlns="http://www.w3.org/2000/svg">
<g clip-path="url(#clip0_234_592)">
<path d="M5.51996 12.24L1.01996 13.5L2.27996 9.00002L10.52 0.800021C10.6131 0.704775 10.7243 0.629096 10.8471 0.577429C10.9699 0.525761 11.1017 0.499146 11.235 0.499146C11.3682 0.499146 11.5 0.525761 11.6228 0.577429C11.7456 0.629096 11.8568 0.704775 11.95 0.800021L13.72 2.58002C13.8137 2.67298 13.8881 2.78359 13.9388 2.90544C13.9896 3.0273 14.0158 3.15801 14.0158 3.29002C14.0158 3.42203 13.9896 3.55274 13.9388 3.6746C13.8881 3.79646 13.8137 3.90706 13.72 4.00002L5.51996 12.24Z" stroke-linecap="round" stroke-linejoin="round"  vector-effect="non-scaling-stroke"/>
</g>
<defs>
<clipPath id="clip0_234_592">
<rect width="14" height="14" transform="translate(0.519958)"/>
</clipPath>
</defs>
</svg>
