<svg width="14" height="14" viewBox="0 0 14 14" fill="none" xmlns="http://www.w3.org/2000/svg">
<path d="M1.5 12.35C1.50359 12.5584 1.56422 12.7617 1.67529 12.938C1.78636 13.1143 1.94363 13.2568 2.13 13.35C2.31611 13.4552 2.52624 13.5104 2.74 13.5104C2.95376 13.5104 3.16389 13.4552 3.35 13.35L12 8.00002C12.1882 7.90935 12.347 7.7674 12.4581 7.5905C12.5693 7.4136 12.6282 7.20893 12.6282 7.00002C12.6282 6.79111 12.5693 6.58644 12.4581 6.40954C12.347 6.23264 12.1882 6.09069 12 6.00002L3.35 0.690019C3.16389 0.584862 2.95376 0.529602 2.74 0.529602C2.52624 0.529602 2.31611 0.584862 2.13 0.690019C1.94363 0.783208 1.78636 0.925696 1.67529 1.102C1.56422 1.2783 1.50359 1.48168 1.5 1.69002V12.35Z"/>
</svg>
