<svg width="24" height="24" viewBox="0 0 24 24" fill="none" xmlns="http://www.w3.org/2000/svg">
<path d="M23.25 10.625C23.25 9.2 22.05 8 20.625 8C19.8 8 19.05 8.375 18.6 9.05C16.8 7.925 14.55 7.25 12 7.25C9.45 7.25 7.2 7.925 5.4 9.05C4.95 8.375 4.2 8 3.375 8C1.95 8 0.75 9.2 0.75 10.625C0.75 11.75 1.425 12.65 2.325 13.025C2.325 13.325 2.25 13.7 2.25 14C2.25 17.75 6.6 20.75 12 20.75C17.4 20.75 21.75 17.75 21.75 14C21.75 13.7 21.675 13.325 21.675 13.025C22.575 12.65 23.25 11.75 23.25 10.625Z" stroke-width="1.5" stroke-miterlimit="10" stroke-linecap="round" stroke-linejoin="round"  vector-effect="non-scaling-stroke"/>
<path d="M9 14.75C9.82843 14.75 10.5 14.0784 10.5 13.25C10.5 12.4216 9.82843 11.75 9 11.75C8.17157 11.75 7.5 12.4216 7.5 13.25C7.5 14.0784 8.17157 14.75 9 14.75Z" stroke-width="1.5" stroke-miterlimit="10" stroke-linecap="round" stroke-linejoin="round"  vector-effect="non-scaling-stroke"/>
<path d="M15 14.75C15.8284 14.75 16.5 14.0784 16.5 13.25C16.5 12.4216 15.8284 11.75 15 11.75C14.1716 11.75 13.5 12.4216 13.5 13.25C13.5 14.0784 14.1716 14.75 15 14.75Z" stroke-width="1.5" stroke-miterlimit="10" stroke-linecap="round" stroke-linejoin="round"  vector-effect="non-scaling-stroke"/>
<path d="M8.25 17C8.775 17.45 10.275 17.75 12 17.75C13.725 17.75 15.225 17.45 15.75 17" stroke-width="1.5" stroke-miterlimit="10" stroke-linecap="round" stroke-linejoin="round"  vector-effect="non-scaling-stroke"/>
<path d="M12 7.25L14.25 2.75L17.25 4.25" stroke-width="1.5" stroke-miterlimit="10" stroke-linecap="round" stroke-linejoin="round"  vector-effect="non-scaling-stroke"/>
<path d="M18.75 6.5C19.5784 6.5 20.25 5.82843 20.25 5C20.25 4.17157 19.5784 3.5 18.75 3.5C17.9216 3.5 17.25 4.17157 17.25 5C17.25 5.82843 17.9216 6.5 18.75 6.5Z" stroke-width="1.5" stroke-miterlimit="10" stroke-linecap="round" stroke-linejoin="round"  vector-effect="non-scaling-stroke"/>
</svg>
