<svg width="14" height="14" viewBox="0 0 14 14" fill="none" xmlns="http://www.w3.org/2000/svg">
<g clip-path="url(#clip0_135_184)">
<path d="M13.5 10.29C13.5005 10.4172 13.4663 10.5421 13.4011 10.6514C13.3359 10.7606 13.2422 10.85 13.13 10.91C13.0197 10.9761 12.8936 11.011 12.765 11.011C12.6364 11.011 12.5103 10.9761 12.4 10.91L7.32001 7.58998C7.2209 7.5267 7.13933 7.43948 7.08283 7.33636C7.02632 7.23325 6.9967 7.11756 6.9967 6.99998C6.9967 6.88239 7.02632 6.76671 7.08283 6.66359C7.13933 6.56047 7.2209 6.47325 7.32001 6.40998L12.4 3.10998C12.5103 3.04388 12.6364 3.00897 12.765 3.00897C12.8936 3.00897 13.0197 3.04388 13.13 3.10998C13.2422 3.16995 13.3359 3.25935 13.4011 3.36859C13.4663 3.47783 13.5005 3.60277 13.5 3.72998V10.29Z" stroke-linecap="round" stroke-linejoin="round" vector-effect="non-scaling-stroke"/>
<path d="M7.00001 10.29C7.00049 10.4172 6.9663 10.5421 6.90111 10.6514C6.83592 10.7606 6.7422 10.85 6.63001 10.91C6.51973 10.9761 6.39358 11.011 6.26501 11.011C6.13644 11.011 6.01029 10.9761 5.90001 10.91L0.820008 7.58998C0.720902 7.5267 0.639333 7.43948 0.582828 7.33636C0.526323 7.23325 0.496704 7.11756 0.496704 6.99998C0.496704 6.88239 0.526323 6.76671 0.582828 6.66359C0.639333 6.56047 0.720902 6.47325 0.820008 6.40998L5.90001 3.10998C6.01029 3.04388 6.13644 3.00897 6.26501 3.00897C6.39358 3.00897 6.51973 3.04388 6.63001 3.10998C6.73924 3.16832 6.83104 3.2546 6.89605 3.36C6.96105 3.46541 6.99692 3.58618 7.00001 3.70998V10.29Z" stroke-linecap="round" stroke-linejoin="round" vector-effect="non-scaling-stroke"/>
</g>
<defs>
<clipPath id="clip0_135_184">
<rect width="14" height="14"/>
</clipPath>
</defs>
</svg>
