<svg width="14" height="14" viewBox="0 0 14 14" fill="none" xmlns="http://www.w3.org/2000/svg">
<g clip-path="url(#clip0_136_229)">
<path d="M2.25 5.09999L6.74 0.609995C6.7736 0.574905 6.81396 0.546981 6.85865 0.527904C6.90333 0.508828 6.95141 0.498993 7 0.498993C7.04859 0.498993 7.09667 0.508828 7.14135 0.527904C7.18604 0.546981 7.2264 0.574905 7.26 0.609995L11.75 5.09999" stroke-linecap="round" stroke-linejoin="round" vector-effect="non-scaling-stroke"/>
<path d="M2.25 8.89999L6.74 13.39C6.7736 13.4251 6.81396 13.453 6.85865 13.4721C6.90333 13.4912 6.95141 13.501 7 13.501C7.04859 13.501 7.09667 13.4912 7.14135 13.4721C7.18604 13.453 7.2264 13.4251 7.26 13.39L11.75 8.89999" stroke-linecap="round" stroke-linejoin="round" vector-effect="non-scaling-stroke"/>
</g>
<defs>
<clipPath id="clip0_136_229">
<rect width="14" height="14"/>
</clipPath>
</defs>
</svg>
