<svg width="14" height="14" viewBox="0 0 14 14" fill="none" xmlns="http://www.w3.org/2000/svg">
<g clip-path="url(#clip0_135_188)">
<path d="M13.5 10.29C13.5005 10.4172 13.4663 10.5422 13.4011 10.6514C13.3359 10.7606 13.2422 10.85 13.13 10.91C13.0197 10.9761 12.8936 11.011 12.765 11.011C12.6364 11.011 12.5103 10.9761 12.4 10.91L7.32001 7.59001C7.2209 7.52673 7.13933 7.43951 7.08283 7.33639C7.02632 7.23328 6.9967 7.11759 6.9967 7.00001C6.9967 6.88242 7.02632 6.76674 7.08283 6.66362C7.13933 6.5605 7.2209 6.47328 7.32001 6.41001L12.4 3.11001C12.5103 3.04391 12.6364 3.009 12.765 3.009C12.8936 3.009 13.0197 3.04391 13.13 3.11001C13.2422 3.16998 13.3359 3.25939 13.4011 3.36862C13.4663 3.47786 13.5005 3.6028 13.5 3.73001V10.29Z" stroke-linecap="round" stroke-linejoin="round" vector-effect="non-scaling-stroke"/>
<path d="M7.00001 10.29C7.00049 10.4172 6.9663 10.5422 6.90111 10.6514C6.83592 10.7606 6.7422 10.85 6.63001 10.91C6.51973 10.9761 6.39358 11.011 6.26501 11.011C6.13644 11.011 6.01029 10.9761 5.90001 10.91L0.820008 7.59001C0.720902 7.52673 0.639333 7.43951 0.582828 7.33639C0.526323 7.23328 0.496704 7.11759 0.496704 7.00001C0.496704 6.88242 0.526323 6.76674 0.582828 6.66362C0.639333 6.5605 0.720902 6.47328 0.820008 6.41001L5.90001 3.11001C6.01029 3.04391 6.13644 3.009 6.26501 3.009C6.39358 3.009 6.51973 3.04391 6.63001 3.11001C6.73924 3.16835 6.83104 3.25463 6.89605 3.36003C6.96105 3.46544 6.99692 3.58621 7.00001 3.71001V10.29Z" stroke-linecap="round" stroke-linejoin="round" vector-effect="non-scaling-stroke"/>
<path d="M0.500008 2.5V11.5" stroke-linecap="round" stroke-linejoin="round" vector-effect="non-scaling-stroke"/>
</g>
<defs>
<clipPath id="clip0_135_188">
<rect width="14" height="14"/>
</clipPath>
</defs>
</svg>
