<?xml version="1.0" encoding="UTF-8"?>
<svg id="Layer_1" data-name="Layer 1" xmlns="http://www.w3.org/2000/svg" xmlns:xlink="http://www.w3.org/1999/xlink" version="1.1" viewBox="0 0 1024 1024">
  <defs>
    <style>
      .cls-1 {
        clip-path: url(#clippath);
      }
      .cls-2 {
        fill: none;
      }
      .cls-2, .cls-3, .cls-4 {
        stroke-width: 0px;
      }
      .cls-3 {
        fill: #000;
      }
      .cls-4 {
        fill: #fff;
        fill-rule: evenodd;
      }
      @media (prefers-color-scheme: dark) {
        .cls-3 {
          fill: #fff;
        }
        .cls-4 {
          fill: #000;
          fill-rule: evenodd;
        }
      }
    </style>
    <clipPath id="clippath">
      <rect class="cls-2" width="1024" height="1024"/>
    </clipPath>
  </defs>
  <g class="cls-1">
    <g>
      <rect class="cls-3" width="1024" height="1024" rx="180" ry="180"/>
      <path class="cls-4" d="M721.074,156.011c-2.468.227-24.394,4.113-27.032,4.652l-303.513,61.241-.113.029c-7.914,1.673-14.126,4.482-18.92,8.51-5.787,4.85-8.992,11.715-10.212,19.714-.255,1.702-.68,5.162-.68,10.268v379.873c0,8.878-.71,17.501-6.723,24.848-6.014,7.347-13.445,9.559-22.154,11.318-6.609,1.333-13.218,2.666-19.827,4-25.075,5.049-41.386,8.481-56.164,14.211-14.126,5.474-24.707,12.452-33.131,21.302-16.708,17.502-23.487,41.244-21.161,63.483,1.986,18.976,10.524,37.13,25.189,50.547,9.899,9.077,22.267,15.97,36.847,18.892,15.119,3.035,31.23,1.985,54.774-2.78,12.537-2.525,24.281-6.467,35.457-13.077,11.062-6.524,20.536-15.232,27.94-25.841,7.432-10.637,12.226-22.465,14.864-35.031,2.723-12.963,3.375-24.678,3.375-37.613v-329.467c0-17.644,4.992-22.296,19.232-25.756,0,0,252.284-50.888,264.056-53.186,16.424-3.148,24.167,1.532,24.167,18.75v224.911c0,8.907-.085,17.927-6.155,25.302-6.014,7.347-13.445,9.56-22.154,11.318-6.609,1.333-13.218,2.667-19.827,4-25.075,5.049-41.386,8.481-56.164,14.211-14.126,5.475-24.707,12.453-33.131,21.303-16.708,17.501-24.083,41.243-21.757,63.482,1.986,18.977,11.12,37.131,25.785,50.548,9.899,9.077,22.267,15.771,36.847,18.721,15.119,3.035,31.23,1.957,54.774-2.78,12.537-2.525,24.281-6.297,35.457-12.906,11.062-6.525,20.537-15.233,27.94-25.841,7.432-10.638,12.226-22.466,14.864-35.032,2.723-12.963,2.836-24.678,2.836-37.613V182.845c.057-17.473-9.162-28.252-25.586-26.834Z"/>
    </g>
  </g>
</svg>
