<svg width="1024" height="1024" viewBox="0 0 1024 1024" fill="none" xmlns="http://www.w3.org/2000/svg">
<g clip-path="url(#clip0_163_129)">
<rect width="1024" height="1024" fill="#F7277A"/>
<path fill-rule="evenodd" clip-rule="evenodd" d="M710.074 156.011C707.606 156.238 685.68 160.124 683.042 160.663L379.529 221.904L379.416 221.933C371.502 223.606 365.29 226.415 360.496 230.443C354.709 235.293 351.504 242.158 350.284 250.157C350.029 251.859 349.604 255.319 349.604 260.425C349.604 260.425 349.604 570.518 349.604 640.298C349.604 649.176 348.894 657.799 342.881 665.146C336.867 672.493 329.436 674.705 320.727 676.464C314.118 677.797 307.509 679.13 300.9 680.464C275.825 685.513 259.514 688.945 244.736 694.675C230.61 700.149 220.029 707.127 211.605 715.977C194.897 733.479 188.118 757.221 190.444 779.46C192.43 798.436 200.968 816.59 215.633 830.007C225.532 839.084 237.9 845.977 252.48 848.899C267.599 851.934 283.71 850.884 307.254 846.119C319.791 843.594 331.535 839.652 342.711 833.042C353.773 826.518 363.247 817.81 370.651 807.201C378.083 796.564 382.877 784.736 385.515 772.17C388.238 759.207 388.89 747.492 388.89 734.557V405.09C388.89 387.446 393.882 382.794 408.122 379.334C408.122 379.334 660.406 328.446 672.178 326.148C688.602 323 696.345 327.68 696.345 344.898V569.809C696.345 578.716 696.26 587.736 690.19 595.111C684.176 602.458 676.745 604.671 668.036 606.429C661.427 607.762 654.818 609.096 648.209 610.429C623.134 615.478 606.823 618.91 592.045 624.64C577.919 630.115 567.338 637.093 558.914 645.943C542.206 663.444 534.831 687.186 537.157 709.425C539.143 728.402 548.277 746.556 562.942 759.973C572.841 769.05 585.209 775.744 599.789 778.694C614.908 781.729 631.019 780.651 654.563 775.914C667.1 773.389 678.844 769.617 690.02 763.008C701.082 756.483 710.557 747.775 717.96 737.167C725.392 726.529 730.186 714.701 732.824 702.135C735.547 689.172 735.66 677.457 735.66 664.522V182.845C735.717 165.372 726.498 154.593 710.074 156.011Z" fill="black"/>
</g>
<defs>
<clipPath id="clip0_163_129">
<rect width="1024" height="1024" fill="white"/>
</clipPath>
</defs>
</svg>
