<?xml version="1.0" encoding="utf-8"?>
<!-- Generator: Adobe Illustrator 27.5.0, SVG Export Plug-In . SVG Version: 6.00 Build 0)  -->
<svg version="1.1" id="Layer_1" xmlns="http://www.w3.org/2000/svg" xmlns:xlink="http://www.w3.org/1999/xlink" x="0px" y="0px"
	 viewBox="0 0 18 18" style="enable-background:new 0 0 18 18;" xml:space="preserve" fill="currentColor">
<path d="M16.294,5.691L12.31,1.706C12.178,1.574,11.999,1.5,11.812,1.5H6.188c-0.186,0-0.365,0.074-0.497,0.206L1.706,5.69
	C1.574,5.822,1.5,6.001,1.5,6.188v5.625c0,0.186,0.074,0.365,0.206,0.497l3.984,3.984C5.822,16.426,6.001,16.5,6.188,16.5h5.625
	c0.186,0,0.365-0.074,0.497-0.206l3.984-3.984c0.132-0.132,0.206-0.311,0.206-0.497V6.188C16.5,6.002,16.426,5.823,16.294,5.691z
	 M8.25,4.75C8.25,4.336,8.586,4,9,4s0.75,0.336,0.75,0.75v5.5C9.75,10.664,9.414,11,9,11s-0.75-0.336-0.75-0.75V4.75z M9,14
	c-0.552,0-1-0.448-1-1s0.448-1,1-1s1,0.448,1,1S9.552,14,9,14z"/>
</svg>
