<?xml version="1.0" encoding="utf-8"?>
<!-- Generator: Adobe Illustrator 27.0.0, SVG Export Plug-In . SVG Version: 6.00 Build 0)  -->
<svg version="1.1" id="Layer_1" xmlns="http://www.w3.org/2000/svg" xmlns:xlink="http://www.w3.org/1999/xlink" x="0px" y="0px"
	 viewBox="0 0 18 18" style="enable-background:new 0 0 18 18;" xml:space="preserve" fill="currentColor">
<g>
	<path d="M2.5,15v-5c0-0.552,0.448-1,1-1h1c0.552,0,1,0.448,1,1v5c0,0.552-0.448,1-1,1h-1C2.948,16,2.5,15.552,2.5,15z"
		/>
	<path d="M7.5,15V3c0-0.552,0.448-1,1-1h1c0.552,0,1,0.448,1,1v12c0,0.552-0.448,1-1,1h-1C7.948,16,7.5,15.552,7.5,15z"
		/>
	<path d="M12.5,15V7c0-0.552,0.448-1,1-1h1c0.552,0,1,0.448,1,1v8c0,0.552-0.448,1-1,1h-1
		C12.948,16,12.5,15.552,12.5,15z"/>
</g>
</svg>
