<?xml version="1.0" encoding="utf-8"?>
<!-- Generator: Adobe Illustrator 27.0.0, SVG Export Plug-In . SVG Version: 6.00 Build 0)  -->
<svg version="1.1" id="Layer_1" xmlns="http://www.w3.org/2000/svg" xmlns:xlink="http://www.w3.org/1999/xlink" x="0px" y="0px"
	 viewBox="0 0 18 18" style="enable-background:new 0 0 18 18;" xml:space="preserve" fill="currentColor">
<g>
	<path d="M9,1.5C4.858,1.5,1.5,4.858,1.5,9c0,4.142,3.358,7.5,7.5,7.5c4.142,0,7.5-3.358,7.5-7.5
		C16.5,4.858,13.142,1.5,9,1.5z M9,15c-3.314,0-6-2.686-6-6s2.686-6,6-6c3.314,0,6,2.686,6,6S12.314,15,9,15z"/>
	<path d="M12.712,11.652L9.75,8.689V4.5c0-0.276-0.224-0.5-0.5-0.5h-0.5c-0.276,0-0.5,0.224-0.5,0.5v4.602
		c0,0.14,0.058,0.265,0.15,0.356C8.402,9.46,8.403,9.464,8.406,9.466l3.246,3.246c0.195,0.195,0.512,0.195,0.707,0l0.354-0.354
		C12.908,12.163,12.908,11.847,12.712,11.652z"/>
</g>
</svg>
