<?xml version="1.0" encoding="utf-8"?>
<!-- Generator: Adobe Illustrator 27.0.0, SVG Export Plug-In . SVG Version: 6.00 Build 0)  -->
<svg version="1.1" id="Layer_1" xmlns="http://www.w3.org/2000/svg" xmlns:xlink="http://www.w3.org/1999/xlink" x="0px" y="0px"
	 viewBox="0 0 18 18" style="enable-background:new 0 0 18 18;" xml:space="preserve" fill="currentColor">
<path d="M9,1.5C4.858,1.5,1.5,4.858,1.5,9s3.358,7.5,7.5,7.5s7.5-3.358,7.5-7.5S13.142,1.5,9,1.5z M4.723,8.662
	c-0.216-0.216-0.338-0.51-0.338-0.816S4.506,7.247,4.723,7.03c0.216-0.216,0.51-0.338,0.816-0.338S6.138,6.814,6.354,7.03
	c0.216,0.216,0.338,0.51,0.338,0.816S6.571,8.446,6.354,8.662C6.138,8.878,5.844,9,5.538,9S4.939,8.878,4.723,8.662z M12.305,12.093
	h-0.001v0.001l-0.001,0.002L12.3,12.1l-0.006,0.008l-0.016,0.022c-0.065,0.087-0.136,0.169-0.212,0.246
	c-0.185,0.192-0.39,0.364-0.612,0.513C10.728,13.372,9.872,13.625,9,13.615c-1.092,0-1.906-0.355-2.453-0.727
	c-0.289-0.196-0.551-0.43-0.777-0.697c-0.016-0.02-0.033-0.041-0.048-0.061l-0.016-0.023L5.7,12.1l-0.002-0.003v-0.002H5.697
	l-0.001-0.002c-0.132-0.188-0.183-0.42-0.144-0.646c0.04-0.226,0.167-0.427,0.355-0.559h0.001c0.186-0.13,0.416-0.182,0.64-0.144
	s0.424,0.162,0.557,0.346l0.008,0.01c0.119,0.136,0.254,0.256,0.404,0.358C7.822,11.663,8.305,11.885,9,11.885
	s1.177-0.221,1.483-0.428c0.149-0.101,0.285-0.222,0.404-0.358l0.008-0.009c0.133-0.187,0.335-0.313,0.561-0.352
	c0.226-0.038,0.459,0.015,0.646,0.148c0.187,0.133,0.313,0.335,0.351,0.561C12.491,11.674,12.438,11.906,12.305,12.093z
	 M13.277,8.662C13.061,8.878,12.768,9,12.462,9c-0.306,0-0.6-0.122-0.816-0.338c-0.216-0.216-0.338-0.51-0.338-0.816
	s0.122-0.599,0.338-0.816c0.216-0.216,0.51-0.338,0.816-0.338c0.306,0,0.6,0.122,0.816,0.338c0.216,0.216,0.338,0.51,0.338,0.816
	S13.494,8.446,13.277,8.662z"/>
</svg>
