<?xml version="1.0" encoding="utf-8"?>
<!-- Generator: Adobe Illustrator 27.0.0, SVG Export Plug-In . SVG Version: 6.00 Build 0)  -->
<svg version="1.1" id="Layer_1" xmlns="http://www.w3.org/2000/svg" xmlns:xlink="http://www.w3.org/1999/xlink" x="0px" y="0px"
	 viewBox="0 0 18 18" style="enable-background:new 0 0 18 18;" xml:space="preserve" fill="currentColor">
<path d="M9.155,17.173c-3.732,0-6.655-2.671-6.655-6.081c0-1.003,0.325-1.983,0.893-2.689
	c0.079-0.1,0.201-0.157,0.327-0.157c0.011,0,0.021,0,0.032,0.001c0.138,0.01,0.261,0.088,0.331,0.208
	c0.383,0.661,0.835,1.107,1.345,1.327c0.237,0.102,0.479,0.154,0.719,0.154c0.47,0,0.944-0.203,1.297-0.557
	c0.93-0.93,0.353-2.299,0.154-2.697c-0.747-1.495-0.676-2.906,0.21-4.196c0.43-0.626,1.047-1.195,1.736-1.6
	c0.065-0.038,0.138-0.058,0.212-0.058c0.061,0,0.122,0.013,0.179,0.04c0.126,0.059,0.214,0.177,0.236,0.313
	c0.414,2.606,1.82,4.087,2.949,5.277C14.51,7.921,15.5,8.965,15.5,11.092C15.5,14.615,12.832,17.173,9.155,17.173z"/>
</svg>
