<?xml version="1.0" encoding="utf-8"?>
<!-- Generator: Adobe Illustrator 27.5.0, SVG Export Plug-In . SVG Version: 6.00 Build 0)  -->
<svg version="1.1" id="Layer_1" xmlns="http://www.w3.org/2000/svg" xmlns:xlink="http://www.w3.org/1999/xlink" x="0px" y="0px"
	 viewBox="0 0 18 18" style="enable-background:new 0 0 18 18;" xml:space="preserve">
<path d="M9,1.5C4.858,1.5,1.5,4.858,1.5,9s3.358,7.5,7.5,7.5s7.5-3.358,7.5-7.5S13.142,1.5,9,1.5z M9,14
	c-0.528,0-0.957-0.429-0.957-0.957S8.471,12.087,9,12.087c0.528,0,0.956,0.429,0.956,0.956C9.956,13.572,9.528,14,9,14z
	 M10.828,8.63c-0.181,0.175-0.381,0.342-0.554,0.486c-0.049,0.041-0.097,0.081-0.14,0.119c-0.175,0.147-0.311,0.272-0.416,0.39v0.81
	c0,0.396-0.321,0.717-0.717,0.717s-0.717-0.321-0.717-0.717v-0.91c0-0.226,0.064-0.481,0.237-0.703
	C8.73,8.554,8.985,8.327,9.208,8.139C9.269,8.087,9.327,8.04,9.383,7.993l0.001-0.001c0.164-0.137,0.309-0.258,0.45-0.394
	c0.351-0.34,0.543-0.647,0.543-1.087c0-0.349-0.148-0.593-0.386-0.771C9.733,5.548,9.367,5.435,9,5.435
	c-0.472,0-0.779,0.116-0.984,0.253C7.806,5.828,7.657,6.02,7.55,6.233C7.372,6.589,6.941,6.732,6.587,6.555
	C6.232,6.378,6.089,5.947,6.266,5.593c0.192-0.385,0.491-0.79,0.954-1.098C7.687,4.183,8.277,4,9,4c0.629,0,1.309,0.187,1.85,0.592
	c0.56,0.42,0.959,1.072,0.959,1.919C11.81,7.499,11.319,8.156,10.828,8.63z"/>
</svg>
