<?xml version="1.0" encoding="utf-8"?>
<!-- Generator: Adobe Illustrator 27.5.0, SVG Export Plug-In . SVG Version: 6.00 Build 0)  -->
<svg version="1.1" id="Layer_1" xmlns="http://www.w3.org/2000/svg" xmlns:xlink="http://www.w3.org/1999/xlink" x="0px" y="0px"
	 viewBox="0 0 18 18" style="enable-background:new 0 0 18 18;" xml:space="preserve" fill="currentColor">
<path d="M9,1.5C4.858,1.5,1.5,4.858,1.5,9s3.358,7.5,7.5,7.5s7.5-3.358,7.5-7.5S13.142,1.5,9,1.5z M9,5
	c0.552,0,1,0.448,1,1S9.552,7,9,7S8,6.552,8,6S8.448,5,9,5z M10.25,13h-2c-0.414,0-0.75-0.336-0.75-0.75s0.336-0.75,0.75-0.75H8.5
	v-2H8.25C7.836,9.5,7.5,9.164,7.5,8.75S7.836,8,8.25,8h1C9.664,8,10,8.336,10,8.75v2.75h0.25c0.414,0,0.75,0.336,0.75,0.75
	S10.664,13,10.25,13z"/>
</svg>
