<?xml version="1.0" encoding="utf-8"?>
<!-- Generator: Adobe Illustrator 27.0.0, SVG Export Plug-In . SVG Version: 6.00 Build 0)  -->
<svg version="1.1" id="Layer_1" xmlns="http://www.w3.org/2000/svg" xmlns:xlink="http://www.w3.org/1999/xlink" x="0px" y="0px"
	 viewBox="0 0 18 18" style="enable-background:new 0 0 18 18;" xml:space="preserve" fill="currentColor">
<path d="M16.472,7.646c-0.064-0.185-0.229-0.307-0.414-0.307h-4.948c-0.339-0.005-0.563-0.38-0.419-0.71l0,0
	l2.367-5.761c0.083-0.202,0.023-0.438-0.143-0.568c-0.078-0.061-0.17-0.091-0.261-0.091c-0.103,0-0.207,0.039-0.29,0.116
	L1.651,10.278c-0.139,0.129-0.188,0.336-0.123,0.52c0.064,0.184,0.228,0.306,0.413,0.306h5.077c0.338,0,0.565,0.372,0.429,0.702
	l0.002,0l-2.19,5.327c-0.083,0.201-0.024,0.437,0.141,0.567c0.078,0.062,0.171,0.092,0.263,0.092c0.103,0,0.205-0.038,0.287-0.114
	l10.395-9.513C16.486,8.038,16.537,7.83,16.472,7.646z"/>
</svg>
