<?xml version="1.0" encoding="utf-8"?>
<!-- Generator: Adobe Illustrator 27.0.0, SVG Export Plug-In . SVG Version: 6.00 Build 0)  -->
<svg version="1.1" id="Layer_1" xmlns="http://www.w3.org/2000/svg" xmlns:xlink="http://www.w3.org/1999/xlink" x="0px" y="0px"
	 viewBox="0 0 18 18" style="enable-background:new 0 0 18 18;" xml:space="preserve" fill="currentColor">
<path d="M15.59,10.535c-0.839-1.454-0.335-3.317,1.127-4.164l-1.572-2.723c-0.449,0.263-0.972,0.414-1.529,0.414
	c-1.68,0-3.042-1.371-3.042-3.062H7.429c0.004,0.522-0.126,1.051-0.406,1.535c-0.839,1.454-2.706,1.948-4.17,1.106L1.281,6.364
	c0.453,0.257,0.845,0.634,1.123,1.117c0.838,1.452,0.336,3.311-1.12,4.16l1.572,2.723c0.448-0.261,0.967-0.41,1.522-0.41
	c1.675,0,3.033,1.362,3.042,3.046h3.145c-0.001-0.517,0.129-1.04,0.406-1.519c0.838-1.452,2.7-1.947,4.163-1.11l1.572-2.723
	C16.256,11.391,15.867,11.015,15.59,10.535z M9,12.24c-1.789,0-3.24-1.45-3.24-3.24S7.21,5.76,9,5.76c1.789,0,3.24,1.45,3.24,3.24
	S10.79,12.24,9,12.24z"/>
</svg>
