<?xml version="1.0" encoding="utf-8"?>
<!-- Generator: Adobe Illustrator 27.0.0, SVG Export Plug-In . SVG Version: 6.00 Build 0)  -->
<svg version="1.1" id="Layer_1" xmlns="http://www.w3.org/2000/svg" xmlns:xlink="http://www.w3.org/1999/xlink" x="0px" y="0px"
	 viewBox="0 0 18 18" style="enable-background:new 0 0 18 18;" xml:space="preserve" fill="currentColor">
<g>
	<path d="M6.348,15.187l-1.768-1.768c-0.293-0.293-0.293-0.768,0-1.061l9.546-9.546c0.293-0.293,0.768-0.293,1.061,0
		l1.768,1.768c0.293,0.293,0.293,0.768,0,1.061l-9.546,9.546C7.116,15.48,6.641,15.48,6.348,15.187z"/>
	<path d="M1.045,8.823l1.768-1.768c0.293-0.293,0.768-0.293,1.061,0l5.303,5.303c0.293,0.293,0.293,0.768,0,1.061
		l-1.768,1.768c-0.293,0.293-0.768,0.293-1.061,0L1.045,9.884C0.752,9.591,0.752,9.116,1.045,8.823z"/>
</g>
</svg>
