<?xml version="1.0" encoding="utf-8"?>
<!-- Generator: Adobe Illustrator 27.0.0, SVG Export Plug-In . SVG Version: 6.00 Build 0)  -->
<svg version="1.1" id="Layer_1" xmlns="http://www.w3.org/2000/svg" xmlns:xlink="http://www.w3.org/1999/xlink" x="0px" y="0px"
	 viewBox="0 0 18 18" style="enable-background:new 0 0 18 18;" xml:space="preserve" fill="currentColor">
<g>
	<circle cx="9" cy="5.608" r="4"/>
	<path d="M14.598,11.804l0.006,0c-0.175-0.233-0.366-0.452-0.568-0.661c-0.065-0.067-0.136-0.128-0.204-0.193
		c-0.159-0.152-0.322-0.297-0.495-0.434c-0.086-0.068-0.173-0.133-0.262-0.197c-0.178-0.128-0.362-0.246-0.552-0.357
		c-0.082-0.048-0.161-0.099-0.245-0.144c-0.275-0.146-0.559-0.278-0.854-0.387c-0.005-0.002-0.01-0.005-0.015-0.007h-0.007
		C10.653,9.152,9.844,9,9,9C8.155,9,7.346,9.151,6.596,9.426H6.592C6.57,9.434,6.551,9.446,6.529,9.454
		C6.261,9.555,6.001,9.675,5.75,9.807c-0.084,0.044-0.165,0.092-0.247,0.14c-0.196,0.114-0.386,0.236-0.57,0.368
		c-0.075,0.054-0.152,0.106-0.225,0.162c-0.241,0.187-0.472,0.385-0.686,0.602c-0.023,0.023-0.042,0.049-0.064,0.073
		c-0.155,0.161-0.305,0.326-0.444,0.501l0.018,0C2.619,12.798,2.047,14.225,2,15.791c-0.009,0.322,0.244,0.591,0.566,0.601h12.867
		c0.322-0.01,0.576-0.279,0.566-0.601C15.955,14.296,15.438,12.922,14.598,11.804z"/>
</g>
</svg>
