<svg width="18" height="18" viewBox="0 0 18 18" fill="none" xmlns="http://www.w3.org/2000/svg">
<g clip-path="url(#clip0_987_10338)">
<path d="M6.0557 12.2892C6.44421 13.068 11.5659 13.0599 11.9499 12.2892C12.3335 11.5194 9.79356 6.8969 9.00304 6.896C8.21207 6.896 5.66719 11.5104 6.0557 12.2892V12.2892Z"/>
<path d="M0.120455 16.2493C1.28958 18.597 16.7259 18.57 17.8824 16.2493C19.0389 13.9286 11.3831 0 9.00166 0C6.61929 0 -1.04867 13.9016 0.120455 16.2493V16.2493ZM3.1835 14.2123C2.41729 12.674 7.44222 3.56545 9.00256 3.56545C10.5633 3.56545 15.5797 12.6906 14.8216 14.2123C14.064 15.7339 3.94971 15.7505 3.1835 14.2123V14.2123Z"/>
</g>
<defs>
<clipPath id="clip0_987_10338">
<rect width="18.0006" height="18"/>
</clipPath>
</defs>
</svg>
