<svg width="1024" height="1024" viewBox="0 0 1024 1024" fill="none" xmlns="http://www.w3.org/2000/svg">
<path d="M616.799 439.963C600.001 451.162 546.809 481.557 538.81 487.556C523.212 499.955 508.814 499.155 493.217 487.156C485.218 480.757 432.025 450.362 415.228 439.563C396.031 427.165 397.231 411.567 418.427 402.769C484.018 375.173 549.608 377.172 614.799 403.968C634.396 412.367 635.196 427.965 616.799 439.963ZM905.557 731.121C868.362 647.533 817.57 571.544 751.979 504.754C730.782 482.757 717.584 457.961 709.585 429.565C705.586 416.367 702.786 402.769 699.987 389.171C691.988 353.976 688.388 317.981 671.991 284.786C642.795 221.595 592.002 188.8 518.413 186C446.023 188 392.031 218.395 360.436 281.986C352.037 299.184 346.038 317.181 342.039 335.578C335.239 365.974 329.24 397.569 322.041 428.365C316.042 454.361 304.044 476.758 283.647 496.755C219.256 559.546 167.664 631.536 128.469 710.724C122.87 722.322 117.271 733.921 113.672 745.919C106.073 772.315 125.27 790.712 153.266 784.313C170.863 780.714 188.461 777.114 205.258 771.915C221.656 765.916 228.055 769.916 232.054 785.913C258.051 871.901 314.842 932.292 401.63 965.887C566.406 1028.28 758.778 939.491 800.372 782.714C803.172 771.915 807.171 767.916 819.169 771.915C837.567 777.514 856.364 781.514 875.161 785.913C894.759 789.513 909.156 779.514 911.956 760.317C913.156 749.918 909.556 740.72 905.557 731.121Z"/>
</svg>
