<svg width="48" height="48" viewBox="0 0 48 48" fill="none" xmlns="http://www.w3.org/2000/svg">
<path fill-rule="evenodd" clip-rule="evenodd" d="M48 24C48 37.2548 37.2548 48 24 48C10.7452 48 0 37.2548 0 24C0 10.7452 10.7452 0 24 0C37.2548 0 48 10.7452 48 24ZM36.3728 20.6235C38.3115 20.5579 39.9344 22.0672 40.0059 24C40.0299 25.3483 39.272 26.5894 38.0667 27.192C38.0907 27.544 38.0907 27.896 38.0667 28.248C38.0667 33.6288 31.8027 37.9958 24.0774 37.9958C16.352 37.9958 10.088 33.623 10.088 28.248C10.064 27.896 10.064 27.544 10.088 27.192C9.73602 27.0368 9.42029 26.816 9.14562 26.5595C7.73176 25.2352 7.66616 23.016 8.99042 21.608C10.3147 20.1942 12.5339 20.1286 13.9419 21.4528C16.7099 19.5798 19.9611 18.5536 23.3019 18.4998L25.0736 10.1718V10.16C25.1632 9.75416 25.5632 9.50349 25.9627 9.59309L31.8448 10.7686C32.2203 10.112 32.9003 9.67042 33.6582 9.59309C34.9766 9.44962 36.1574 10.4043 36.3008 11.7227C36.4443 13.0411 35.4896 14.2224 34.1712 14.3654C32.8528 14.5088 31.6715 13.5542 31.5286 12.2358L26.392 11.1558L24.8352 18.6427C28.1344 18.7142 31.344 19.7344 34.0763 21.5958C34.6966 21.0054 35.5136 20.6534 36.3728 20.6235ZM18.4102 24C17.0859 24 16.0059 25.08 16.0059 26.4043C16.0059 27.7286 17.08 28.7963 18.4102 28.8086C19.7344 28.8086 20.8144 27.7286 20.8144 26.4043C20.8144 25.08 19.7344 24 18.4102 24ZM29.9478 33.0022V33.0976C30.2102 32.8411 30.216 32.4118 29.9595 32.1494C29.7024 31.887 29.2731 31.8811 29.0107 32.1376C27.5494 33.1814 25.7835 33.6944 23.9936 33.599C22.2043 33.6827 20.4443 33.1456 19.0006 32.0896C18.7558 31.8928 18.4155 31.8928 18.1771 32.0896C17.9024 32.3163 17.8608 32.7275 18.0875 33.0022C19.7942 34.2848 21.8816 34.9414 24.0176 34.8518C26.1536 34.9408 28.2416 34.2848 29.9478 33.0022ZM29.5003 28.9814H29.6198C30.944 28.9275 31.976 27.8123 31.9227 26.4875C31.9227 25.1632 30.8427 24.0832 29.5184 24.0832C28.1942 24.0832 27.1142 25.1632 27.1142 26.4875C27.1142 27.8118 28.1942 28.8918 29.5184 28.8918L29.5003 28.9814Z" fill="white"/>
</svg>
