<svg xmlns="http://www.w3.org/2000/svg" fill="none" viewBox="0 0 24 24"><path d="M17 20.324c-.72 1.112-1.914 1.993-3.214 2.395-2.796.866-5.89-.327-7.248-2.813-.68-1.244-.928-2.803.553-3.601 2.132-1.15 3.474 1.244 4.85 2.374 1.39 1.143 3.235 1.691 5.059 1.645M3.664 17c-1.279-.827-2.256-2.31-2.549-3.854-.358-1.89.124-3.845 1.354-5.283 1.162-1.359 3.881-2.92 5.146-.884 1.252 2.015-.857 3.277-1.952 4.533-1.335 1.53-2.084 3.383-2 5.488M20.317 7c3.756 2.453 3.525 8.329-.42 10.477-1.262.687-2.957.91-3.679-.678-.94-2.07 1.395-3.417 2.506-4.795 1.109-1.375 1.67-3.208 1.593-5.004M7 3.677C8.94.717 13.215.113 16.012 2.362c1.444 1.161 3.155 4.14.887 5.339-2.019 1.067-3.19-.979-4.47-2.078C10.895 4.309 9.09 3.581 7 3.677" vector-effect="non-scaling-stroke"/></svg>